<svg version="1.1" xmlns="http://www.w3.org/2000/svg" x="0px" y="0px" viewBox="0 0 512 512">
    <path fill="#77ca98" d="M472.928,34.752c-4.416-3.008-10.016-3.552-14.944-1.6c-1.024,0.416-106.88,42.048-195.168,0.384
			C186.72-2.432,102.912,14.4,64,25.76V16c0-8.832-7.168-16-16-16c-8.832,0-16,7.168-16,16v32v256v192c0,8.832,7.168,16,16,16
			c8.832,0,16-7.168,16-16V315.328c28.384-9.184,112.608-31.136,185.184,3.136c34.592,16.352,70.784,21.792,103.648,21.792
			c63.2,0,114.016-20.128,117.184-21.408c6.016-2.464,9.984-8.32,9.984-14.848V48C480,42.688,477.344,37.728,472.928,34.752z"/>
</svg>
