<svg version="1.1" xmlns="http://www.w3.org/2000/svg" x="0px" y="0px" width="97.473px" height="97.473px" viewBox="0 0 97.473 97.473">
	<rect fill="#b4b1fb" x="41.569" y="47.753" width="14.333" height="14.333"/>
	<rect fill="#b4b1fb" x="41.569" y="67.754" width="14.333" height="14.332"/>
	<rect fill="#b4b1fb" x="18.569" y="67.754" width="14.333" height="14.332"/>
	<rect fill="#b4b1fb" x="18.569" y="47.753" width="14.333" height="14.333"/>
	<path fill="#b4b1fb" d="M95.472,14.466H84.427V2.701c0-1.104-0.896-2-2-2H65.811c-1.104,0-2,0.896-2,2v11.765H33.662V2.701c0-1.104-0.896-2-2-2
				H15.045c-1.104,0-2,0.896-2,2v11.765H2c-1.104,0-2,0.896-2,2v78.305c0,1.104,0.896,2,2,2h93.473c1.104,0,2-0.896,2-2V16.466
				C97.472,15.362,96.576,14.466,95.472,14.466z M69.645,8.037c0-0.828,0.672-1.5,1.5-1.5h5.947c0.829,0,1.5,0.672,1.5,1.5v20.34
				c0,0.828-0.671,1.5-1.5,1.5h-5.947c-0.828,0-1.5-0.672-1.5-1.5V8.037z M18.88,8.037c0-0.828,0.671-1.5,1.5-1.5h5.947
				c0.829,0,1.5,0.672,1.5,1.5v20.34c0,0.828-0.671,1.5-1.5,1.5H20.38c-0.829,0-1.5-0.672-1.5-1.5V8.037z M87.068,84.902
				c0,0.828-0.67,1.5-1.5,1.5H11.903c-0.829,0-1.5-0.672-1.5-1.5v-40c0-0.828,0.671-1.5,1.5-1.5h73.666c0.83,0,1.5,0.672,1.5,1.5
				V84.902z"/>
	<rect fill="#b4b1fb" x="64.568" y="47.753" width="14.334" height="14.333"/>
	<rect fill="#b4b1fb" x="64.568" y="67.754" width="14.334" height="14.332"/>
</svg>
