<svg version="1.1" xmlns="http://www.w3.org/2000/svg" x="0px" y="0px" viewBox="0 0 512 512">
    <path fill="#77ca98" d="M155,0H15C6.716,0,0,6.716,0,15v35h170V15C170,6.716,163.284,0,155,0z"/>
    <path fill="#77ca98" d="M504.464,142.989c-4.662-2.674-10.397-2.651-15.036,0.063L341,229.852V156c0-5.374-2.875-10.337-7.536-13.011
			c-4.662-2.674-10.397-2.651-15.036,0.063L170,229.852V80H0v417c0,8.284,6.716,15,15,15h482c8.284,0,15-6.716,15-15V156
			C512,150.626,509.125,145.663,504.464,142.989z M230,406.5c0,8.284-6.716,15-15,15h-60c-8.284,0-15-6.716-15-15v-60
			c0-8.284,6.716-15,15-15h60c8.284,0,15,6.716,15,15V406.5z M401,406.5c0,8.284-6.716,15-15,15h-60c-8.284,0-15-6.716-15-15v-60
			c0-8.284,6.716-15,15-15h60c8.284,0,15,6.716,15,15V406.5z"/>
</svg>
