<?xml version="1.0" encoding="UTF-8" standalone="no"?>
<svg
   xmlns:svg="http://www.w3.org/2000/svg"
   xmlns="http://www.w3.org/2000/svg"
   viewBox="0 0 110 110"
   version="1.1"
   width="500"
   height="500">
  <path
     d="M 55.105965,54.648825 M 82.182422,8.0521107 A 53.892377,53.892377 0 1 0 28.029508,101.24554 53.892377,53.892377 0 1 0 82.182422,8.0521107 Z M 55.105965,54.648825 M 76.692536,17.499824 A 42.965432,42.965432 0 0 1 33.519393,91.797827 42.965432,42.965432 0 0 1 76.692536,17.499824 Z"
     style="stroke-width:1.06812763" />
  <path
     d="M 70.749364,31.224635 78.426933,38.910146 63.054265,54.266973 78.41107,69.639662 70.725571,77.317242 55.368766,61.944553 39.996098,77.301379 32.318529,69.615869 47.691197,54.259042 32.334392,38.886353 l 7.685499,-7.67758 15.356805,15.372689 z"
     style="stroke-width:1.17913187" />
</svg>
