<?xml version="1.0" encoding="iso-8859-1"?>
<!-- Generator: Adobe Illustrator 19.0.0, SVG Export Plug-In . SVG Version: 6.00 Build 0)  -->
<svg version="1.1" id="Capa_1" xmlns="http://www.w3.org/2000/svg" xmlns:xlink="http://www.w3.org/1999/xlink" x="0px" y="0px"
	 viewBox="0 0 512 512" style="enable-background:new 0 0 512 512;" xml:space="preserve">
<g>
	<g>
		
			<rect x="94.108" y="258.996" transform="matrix(0.7071 -0.7071 0.7071 0.7071 -123.7269 291.4534)" width="391.687" height="72.165"/>
	</g>
</g>
<g>
	<g>
		<path d="M486.304,25.696C469.736,9.126,447.705,0,424.272,0c-23.433,0-45.464,9.126-62.033,25.696l-10.331,10.331l124.066,124.067
			l10.331-10.331c16.57-16.57,25.695-38.6,25.695-62.033C511.999,64.296,502.874,42.266,486.304,25.696z"/>
	</g>
</g>
<g>
	<g>
		
			<rect x="21.069" y="185.96" transform="matrix(0.7071 -0.7071 0.7071 0.7071 -93.4717 218.4134)" width="391.687" height="72.155"/>
	</g>
</g>
<g>
	<g>
		<path d="M35.556,361.685L0.532,492.399c-1.44,5.373,0.097,11.106,4.03,15.039C7.52,510.398,11.497,512,15.572,512
			c1.343,0,2.697-0.173,4.029-0.53l130.715-35.024L35.556,361.685z"/>
	</g>
</g>
<g>
</g>
<g>
</g>
<g>
</g>
<g>
</g>
<g>
</g>
<g>
</g>
<g>
</g>
<g>
</g>
<g>
</g>
<g>
</g>
<g>
</g>
<g>
</g>
<g>
</g>
<g>
</g>
<g>
</g>
</svg>
