<?xml version="1.0" encoding="UTF-8" standalone="no"?>
<svg
  xmlns:svg="http://www.w3.org/2000/svg"
  xmlns="http://www.w3.org/2000/svg"
  width="262" height="139" viewBox="0 0 196.5 104.25" xml:space="preserve"
  style="overflow:visible;color-interpolation-filters:sRGB;fill:none;fill-rule:evenodd;stroke-linecap:square;stroke-miterlimit:3">
    <style>
      .style1 {
        fill:#005493;stroke:#005493;stroke-width:0;stroke-linecap:round;stroke-linejoin:round;stroke-miterlimit:3;stroke-dasharray:none
      }
      .style2 {
        fill:#ffffff;stroke:none;stroke-width:2.17098069;stroke-miterlimit:3;stroke-dasharray:none;stroke-opacity:0.9908257
      }
      .style3 {
        fill:#000e26;fill-opacity:1;stroke-width:0.46403068
      }
    </style>
    <g transform="translate(0,27.75)">
        <g id="g867">
            <g transform="matrix(1.05833,0,0,1.05833,120.74972,-5.7372661)" style="fill:none;fill-rule:evenodd;stroke-linecap:square;stroke-miterlimit:3">
                <path class="style1" d="M 70.866203,41.562801 A 35.433102,35.433102 0 0 1 35.433102,76.995903 35.433102,35.433102 0 0 1 0,41.562801 35.433102,35.433102 0 0 1 35.433102,6.1296997 35.433102,35.433102 0 0 1 70.866203,41.562801 Z"/>
            </g>
            <g transform="matrix(0.92015939,0,0,1.0805089,38.366823,-7.5778268)"
              style="fill:none;fill-rule:evenodd;stroke-linecap:square;stroke-miterlimit:3">
                <path d="M 0,7.8305202 H 130.158 V 76.995918 H 0 Z"
                  style="fill:#005493;stroke:#005493;stroke-width:0.25;stroke-linecap:round;stroke-linejoin:round;stroke-opacity:0.95999995" />
            </g>
            <g transform="matrix(1.05833,0,0,1.05833,0.74999879,-5.7372661)" 
              style="fill:none;fill-rule:evenodd;stroke-linecap:square;stroke-miterlimit:3">
                <path class="style1" d="M 70.866203,41.562801 A 35.433102,35.433102 0 0 1 35.433102,76.995903 35.433102,35.433102 0 0 1 0,41.562801 35.433102,35.433102 0 0 1 35.433102,6.1296997 35.433102,35.433102 0 0 1 70.866203,41.562801 Z"/>
            </g>
            <circle cy="38.249912" cx="38.249908" r="33.74992"
              style="fill:#ffffff;fill-rule:evenodd;stroke:#005493;stroke-width:0;stroke-linecap:round;stroke-linejoin:round;stroke-miterlimit:3;stroke-dasharray:none"/>
        </g>
        <g aria-label="ntodia" transform="scale(0.98480417,1.0154303)" style="font-style:normal;font-variant:normal;font-weight:normal;font-stretch:normal;font-size:56.2976532px;line-height:1.25;font-family:'Tw Cen MT Condensed';-inkscape-font-specification:'Tw Cen MT Condensed, Normal';font-variant-ligatures:normal;font-variant-caps:normal;font-variant-numeric:normal;font-feature-settings:normal;text-align:start;letter-spacing:0px;word-spacing:0px;writing-mode:lr-tb;text-anchor:start;fill:#000000;fill-opacity:1;stroke:none;stroke-width:2.17098069;stroke-miterlimit:3;stroke-dasharray:none;stroke-opacity:0.9908257">
            <path class="style2" d="m 85.998988,26.426634 v 2.309084 h 0.109956 q 1.731812,-2.638953 4.673145,-2.638953 5.222927,0 5.222927,5.690242 V 50.534565 H 91.551783 V 33.078994 q 0,-3.546093 -2.803887,-3.546093 -1.291987,0 -2.061681,0.962118 -0.742206,0.934629 -0.742206,2.583975 v 17.455571 h -4.50821 V 26.426634 Z"/>
            <path class="style2" d="m 110.6567,30.055194 h -2.91384 v 20.479371 h -4.50821 V 30.055194 h -2.88636 v -3.546092 h 2.88636 v -6.542403 h 4.50821 v 6.542403 h 2.91384 z"/>
            <path class="style2" d="m 122.22961,26.096765 q 3.43613,0 5.5253,2.611464 2.08917,2.611463 2.08917,10.115984 0,7.037207 -2.19912,9.538714 -2.17164,2.501507 -5.36038,2.501507 -3.98591,0 -5.91015,-2.996311 -1.92424,-2.99631 -1.92424,-9.208844 0,-7.614478 2.19913,-10.088496 2.19913,-2.474018 5.47033,-2.474018 z m 2.83137,13.854501 q 0,-6.130067 -0.57727,-8.13677 -0.57727,-2.006704 -2.30908,-2.006704 -1.64935,0 -2.25411,1.566878 -0.60476,1.566878 -0.60476,5.305394 0,7.284609 0.65974,8.906465 0.68723,1.621856 2.25411,1.621856 1.67683,0 2.2541,-1.621856 0.57727,-1.649345 0.57727,-5.635263 z"/>
            <path class="style2" d="m 145.73278,14.276457 h 4.48072 v 36.258108 h -4.42574 v -3.216223 h -0.10996 q -1.62186,3.546092 -4.61817,3.546092 -1.7593,0 -3.24371,-1.182031 -1.45692,-1.182031 -2.03419,-3.29869 -0.57727,-2.11666 -0.57727,-7.064696 0,-5.635263 0.4948,-8.054303 0.4948,-2.446529 1.89675,-3.793494 1.40194,-1.374455 3.57358,-1.374455 2.83138,0 4.45323,3.216224 h 0.10996 z m 0.055,23.860529 q 0,-4.453232 -0.57727,-6.295001 -0.54979,-1.869258 -2.25411,-1.869258 -1.70432,0 -2.33657,1.951725 -0.63225,1.951725 -0.63225,6.459936 0,4.673145 0.57727,6.679848 0.60476,1.979215 2.28159,1.979215 1.64935,0 2.2816,-2.061682 0.65974,-2.089171 0.65974,-6.844783 z"/>
            <path class="style2" d="m 155.98621,19.169515 q 0,-0.989607 0.71471,-1.731813 0.74221,-0.742205 1.7593,-0.742205 1.0171,0 1.73182,0.742205 0.7422,0.742206 0.7422,1.731813 0,1.017096 -0.7422,1.759302 -0.71472,0.714716 -1.73182,0.714716 -1.04458,0 -1.7593,-0.714716 -0.71471,-0.742206 -0.71471,-1.759302 z m 0.21991,7.339587 h 4.45323 v 24.025463 h -4.45323 z"/>
            <path class="style2" d="m 181.22119,50.534565 h -4.48072 v -2.913843 h -0.13745 q -1.73181,3.243712 -4.48072,3.243712 -2.33657,0 -4.12336,-2.171638 -1.78679,-2.199127 -1.78679,-9.813605 0,-6.762315 1.34696,-9.731137 1.34697,-2.996311 4.61817,-2.996311 1.53939,0 2.47402,0.714717 0.96211,0.714716 1.95172,2.281594 h 0.13745 v -2.638952 h 4.48072 z m -7.36708,-3.601071 q 1.73182,0 2.30909,-2.061681 0.57727,-2.061682 0.57727,-7.009718 0,-4.343276 -0.5223,-6.102577 -0.52229,-1.786791 -2.19912,-1.786791 -1.67684,0 -2.33658,1.649345 -0.63224,1.649345 -0.63224,5.965132 0,5.085482 0.4948,7.229631 0.52229,2.116659 2.30908,2.116659 z"/>
        </g>
    <g aria-label="powered by" transform="matrix(1.6977495,0,0,1.552228,-59.151919,0.14999977)" style="fill:#000e26;fill-opacity:1;stroke:none;stroke-width:0.46403068">
      <path class="style3" d="m 65.879339,-12.104674 q 0.362524,-0.516597 0.697859,-0.752237 0.344398,-0.235641 0.806616,-0.235641 1.060382,0 1.504474,0.942562 0.444092,0.942562 0.444092,3.0723906 0,2.4017211 -0.471281,3.2808417 -0.462218,0.8700575 -1.459159,0.8700575 -0.435029,0 -0.734111,-0.1903251 -0.299082,-0.1993882 -0.752237,-0.8066158 h -0.03625 v 4.3774766 H 64.392991 V -12.974732 h 1.450096 v 0.870058 z m 0.888184,5.9000769 q 0.534723,0 0.7613,-0.6162907 0.226578,-0.6253538 0.226578,-2.021071 0,-1.6222942 -0.208451,-2.3020272 -0.208452,-0.688795 -0.779427,-0.688795 -0.52566,0 -0.715985,0.570975 -0.190325,0.561912 -0.190325,1.9213767 0,1.6857364 0.14501,2.4107843 0.154073,0.7250479 0.7613,0.7250479 z"/>
      <path d="m 73.492342,-13.110678 q 1.132888,0 1.821683,0.860994 0.688796,0.860994 0.688796,3.3352204 0,2.3201532 -0.725048,3.1448952 -0.715985,0.824742 -1.767305,0.824742 -1.314149,0 -1.948566,-0.9878778 -0.634417,-0.9878777 -0.634417,-3.036138 0,-2.5104788 0.725048,-3.3261568 0.725048,-0.815679 1.803557,-0.815679 z m 0.933499,4.5678014 q 0,-2.0210714 -0.190325,-2.6826774 -0.190325,-0.661606 -0.7613,-0.661606 -0.543786,0 -0.743174,0.516597 -0.199388,0.516596 -0.199388,1.7491777 0,2.4017211 0.217514,2.9364439 0.226578,0.5347228 0.743174,0.5347228 0.552849,0 0.743174,-0.5347228 0.190325,-0.5437859 0.190325,-1.8579352 z"/>
      <path class="style3" d="m 85.074982,-12.974732 -1.948566,7.9211484 H 82.08416 l -0.978815,-4.8487578 h -0.03625 l -0.987878,4.8487578 H 79.1024 l -1.966692,-7.9211484 h 1.368528 l 1.114761,5.2837867 h 0.03625 l 1.060383,-5.2837867 h 0.7613 l 1.114761,5.3019129 h 0.03625 l 1.05132,-5.3019129 z"/>
      <path class="style3" d="m 90.965996,-8.7513278 h -3.33522 q 0,1.28696 0.172198,1.9485662 0.181262,0.652543 0.842869,0.652543 0.507533,0 0.688795,-0.3806501 0.181262,-0.3806501 0.190325,-1.196329 h 1.350402 q -0.06344,2.7823713 -2.356406,2.7823713 -2.465163,0 -2.465163,-3.8971324 0,-4.2505932 2.555794,-4.2505932 0.969752,0 1.658547,0.734111 0.697859,0.734111 0.697859,3.0361379 z m -1.495411,-1.1510136 q 0,-1.1782026 -0.190325,-1.6857366 -0.190326,-0.516596 -0.688796,-0.516596 -0.589101,0 -0.779426,0.543786 -0.181262,0.534722 -0.181262,1.6585466 z"/>
      <path class="style3" d="m 96.286034,-11.805592 q -1.02413,0.02719 -1.459159,0.389713 -0.435029,0.362524 -0.435029,1.6132317 v 4.7490637 h -1.504474 v -7.9211484 h 1.504474 v 1.16914 h 0.03625 q 0.652543,-1.28696 1.758241,-1.28696 l 0.09969,0.01813 z"/>
      <path class="style3" d="m 102.34925,-8.7513278 h -3.335221 q 0,1.28696 0.172199,1.9485662 0.181262,0.652543 0.842872,0.652543 0.50753,0 0.68879,-0.3806501 0.18126,-0.3806501 0.19033,-1.196329 h 1.3504 q -0.0634,2.7823713 -2.356408,2.7823713 -2.465162,0 -2.465162,-3.8971324 0,-4.2505932 2.555793,-4.2505932 0.969747,0 1.658547,0.734111 0.69786,0.734111 0.69786,3.0361379 z m -1.49541,-1.1510136 q 0,-1.1782026 -0.19033,-1.6857366 -0.19032,-0.516596 -0.688793,-0.516596 -0.589101,0 -0.779426,0.543786 -0.181262,0.534722 -0.181262,1.6585466 z"/>
      <path class="style3" d="m 107.66929,-17.007811 h 1.47728 v 11.9542274 h -1.45916 v -1.0603826 h -0.0362 q -0.53472,1.1691398 -1.5226,1.1691398 -0.58004,0 -1.06945,-0.3897133 -0.48034,-0.3897132 -0.67067,-1.0875718 -0.19032,-0.6978586 -0.19032,-2.3292163 0,-1.8579352 0.16313,-2.6554882 0.16314,-0.806615 0.62536,-1.250707 0.46222,-0.453155 1.1782,-0.453155 0.9335,0 1.46822,1.060382 h 0.0363 z m 0.0181,7.8667699 q 0,-1.4682219 -0.19032,-2.0754499 -0.18127,-0.61629 -0.74318,-0.61629 -0.56191,0 -0.77036,0.64348 -0.20845,0.64348 -0.20845,2.1298278 0,1.5407268 0.19032,2.202333 0.19939,0.6525431 0.75224,0.6525431 0.54379,0 0.75224,-0.6797324 0.21751,-0.6887955 0.21751,-2.2567116 z"/>
      <path class="style3" d="m 114.47567,-17.007811 h 1.48635 v 5.084399 h 0.0363 q 0.4169,-1.187266 1.54072,-1.187266 0.83381,0 1.36853,0.779426 0.54379,0.779427 0.54379,3.0089489 0,2.7189296 -0.48035,3.5436716 -0.48034,0.8156789 -1.48635,0.8156789 -0.96068,0 -1.50447,-1.187266 h -0.0362 v 1.096635 h -1.46823 z m 3.39867,8.2746094 q 0,-1.6857364 -0.19939,-2.4017214 -0.19033,-0.715985 -0.78849,-0.715985 -0.50753,0 -0.72505,0.580039 -0.21751,0.580038 -0.21751,1.857935 0,1.7310518 0.19938,2.4651628 0.20846,0.7250479 0.77943,0.7250479 0.5166,0 0.73411,-0.5891014 0.21752,-0.5981646 0.21752,-1.9213769 z"/>
      <path class="style3" d="m 126.23957,-12.974732 -3.69774,11.4285675 h -1.29602 l 1.29602,-4.2143408 -2.14795,-7.2142267 h 1.47728 l 1.30509,5.4559856 h 0.0363 l 1.61323,-5.4559856 z"/>
    </g
  ></g>
</svg>